<svg xmlns="http://www.w3.org/2000/svg" display="none">
    <symbol id="whatsapp" viewBox="0 0 481.168 481.168">
        <g>
            <path d="M410.639,70.5c-94-94-246.3-94-340.2,0c-90.4,90.4-93.8,235-10.1,329.5l2.5,2c-9.1,19.6-24.7,43.8-49.5,56
		c-8.2,4-6.3,16.2,2.7,17.6c27.1,4.2,66-0.5,102.3-27.9l0.5,0.4c92.2,54.2,212.8,41.8,292-37.4
		C504.639,316.8,504.639,164.4,410.639,70.5z M319.839,343.5c-5.3,5.4-10.9,10.4-15.9,16c-7.3,8.2-16.5,10.8-26.9,10.2
		c-15.2-0.8-29.3-5.9-42.8-12.5c-30.1-14.6-55.8-34.9-77.3-60.5c-15.9-18.9-29-39.5-37.7-62.8c-4.2-11.3-7.2-22.8-6.3-35
		c0.6-7.5,3.4-13.9,8.9-19.2c6-5.7,11.6-11.6,17.5-17.4c7.7-7.6,17.3-7.5,25,0c4.8,4.7,9.4,9.4,14.1,14.1c4.6,4.6,9.2,9.1,13.7,13.7
		c8,8.1,8,17.5,0,25.6c-5.7,5.8-11.4,11.6-17.3,17.2c-1.5,1.5-1.7,2.7-0.9,4.6c3.8,9.2,9.4,17.4,15.6,25
		c12.5,15.4,26.7,29.1,43.7,39.7c3.6,2.3,7.6,3.9,11.4,6c1.9,1.1,3.3,0.7,4.8-0.9c5.7-5.9,11.6-11.7,17.4-17.5
		c7.7-7.6,17.3-7.6,24.9,0c9.4,9.3,18.7,18.6,28,28C327.739,326,327.739,335.6,319.839,343.5z M231.139,188.1l3-21.4
		c20.7,2.9,39.5,12.3,54.3,27.1c14.1,14.1,23.3,31.8,26.6,51.3l-21.3,3.7c-2.6-15.1-9.7-28.8-20.6-39.7
		C261.639,197.6,247.139,190.3,231.139,188.1z M349.839,245.1c-4.8-28-18-53.4-38.1-73.6c-21.2-21.2-48.1-34.6-77.8-38.8l3-21.4
		c34.3,4.8,65.5,20.3,90,44.9c23.3,23.3,38.6,52.8,44.2,85.2L349.839,245.1z"/>
        </g>
    </symbol>

    <symbol id="prev" viewBox="0 0 240.823 240.823">
        <g>
            <path d="M57.633,129.007L165.93,237.268c4.752,4.74,12.451,4.74,17.215,0c4.752-4.74,4.752-12.439,0-17.179
		l-99.707-99.671l99.695-99.671c4.752-4.74,4.752-12.439,0-17.191c-4.752-4.74-12.463-4.74-17.215,0L57.621,111.816
		C52.942,116.507,52.942,124.327,57.633,129.007z"/>
        </g>
    </symbol>


    <symbol id="download" viewBox="0 0 384.928 384.928">
        <g>
            <path id="Arrow_Download" d="M321.339,245.334c-4.74-4.692-12.439-4.704-17.179,0l-99.551,98.564V12.03
		c0-6.641-5.438-12.03-12.151-12.03s-12.151,5.39-12.151,12.03v331.868l-99.551-98.552c-4.74-4.704-12.439-4.704-17.179,0
		s-4.74,12.319,0,17.011l120.291,119.088c4.692,4.644,12.499,4.644,17.191,0l120.291-119.088
		C326.091,257.653,326.091,250.038,321.339,245.334C316.599,240.642,326.091,250.038,321.339,245.334z"/>
        </g>
    </symbol>

</svg>