<svg xmlns="http://www.w3.org/2000/svg" display="none">
    <symbol id="whatsapp" viewBox="0 0 481.168 481.168">
        <g>
            <path d="M410.639,70.5c-94-94-246.3-94-340.2,0c-90.4,90.4-93.8,235-10.1,329.5l2.5,2c-9.1,19.6-24.7,43.8-49.5,56
		c-8.2,4-6.3,16.2,2.7,17.6c27.1,4.2,66-0.5,102.3-27.9l0.5,0.4c92.2,54.2,212.8,41.8,292-37.4
		C504.639,316.8,504.639,164.4,410.639,70.5z M319.839,343.5c-5.3,5.4-10.9,10.4-15.9,16c-7.3,8.2-16.5,10.8-26.9,10.2
		c-15.2-0.8-29.3-5.9-42.8-12.5c-30.1-14.6-55.8-34.9-77.3-60.5c-15.9-18.9-29-39.5-37.7-62.8c-4.2-11.3-7.2-22.8-6.3-35
		c0.6-7.5,3.4-13.9,8.9-19.2c6-5.7,11.6-11.6,17.5-17.4c7.7-7.6,17.3-7.5,25,0c4.8,4.7,9.4,9.4,14.1,14.1c4.6,4.6,9.2,9.1,13.7,13.7
		c8,8.1,8,17.5,0,25.6c-5.7,5.8-11.4,11.6-17.3,17.2c-1.5,1.5-1.7,2.7-0.9,4.6c3.8,9.2,9.4,17.4,15.6,25
		c12.5,15.4,26.7,29.1,43.7,39.7c3.6,2.3,7.6,3.9,11.4,6c1.9,1.1,3.3,0.7,4.8-0.9c5.7-5.9,11.6-11.7,17.4-17.5
		c7.7-7.6,17.3-7.6,24.9,0c9.4,9.3,18.7,18.6,28,28C327.739,326,327.739,335.6,319.839,343.5z M231.139,188.1l3-21.4
		c20.7,2.9,39.5,12.3,54.3,27.1c14.1,14.1,23.3,31.8,26.6,51.3l-21.3,3.7c-2.6-15.1-9.7-28.8-20.6-39.7
		C261.639,197.6,247.139,190.3,231.139,188.1z M349.839,245.1c-4.8-28-18-53.4-38.1-73.6c-21.2-21.2-48.1-34.6-77.8-38.8l3-21.4
		c34.3,4.8,65.5,20.3,90,44.9c23.3,23.3,38.6,52.8,44.2,85.2L349.839,245.1z"/>
        </g>
    </symbol>

    <symbol id="prev" viewBox="0 0 240.823 240.823">
        <g>
            <path d="M57.633,129.007L165.93,237.268c4.752,4.74,12.451,4.74,17.215,0c4.752-4.74,4.752-12.439,0-17.179
		l-99.707-99.671l99.695-99.671c4.752-4.74,4.752-12.439,0-17.191c-4.752-4.74-12.463-4.74-17.215,0L57.621,111.816
		C52.942,116.507,52.942,124.327,57.633,129.007z"/>
        </g>
    </symbol>


    <symbol id="download" viewBox="0 0 384.928 384.928">
        <g>
            <path id="Arrow_Download" d="M321.339,245.334c-4.74-4.692-12.439-4.704-17.179,0l-99.551,98.564V12.03
		c0-6.641-5.438-12.03-12.151-12.03s-12.151,5.39-12.151,12.03v331.868l-99.551-98.552c-4.74-4.704-12.439-4.704-17.179,0
		s-4.74,12.319,0,17.011l120.291,119.088c4.692,4.644,12.499,4.644,17.191,0l120.291-119.088
		C326.091,257.653,326.091,250.038,321.339,245.334C316.599,240.642,326.091,250.038,321.339,245.334z"/>
        </g>
    </symbol>

    <symbol id="stage1" viewBox="0 0 460.659 460.659">
        <g>
            <path d="M441.078,445.659h-50.975v-15.367c0-35.193-9.385-62.355-27.895-80.732c-8.308-8.248-17.36-13.585-25.66-17.052v-81.365
		c17.38-6.49,29.792-23.258,29.792-42.873c0-8.768-2.489-17.287-7.198-24.642c0.81-6.425,0.491-12.245,0.14-15.683
		c-0.576-5.654-3.134-10.399-7.397-13.723c-4.663-3.635-10.551-4.905-15.336-5.258v-24.366c0-47.798-12.369-80.892-37.814-101.172
		C278.96,7.666,252.099,0.214,214.315,0.01C214.251,0.008,214.187,0,214.123,0c-0.197,0-0.393,0.005-0.589,0.005
		C213.261,0.004,212.995,0,212.721,0c-0.095,0-0.187,0.011-0.279,0.014c-36.052,0.297-66.855,10.113-89.161,28.448
		c-28.179,23.163-42.467,58.85-42.467,106.065v238.201c0,0.714,0.106,1.402,0.292,2.057c-7.002,15.369-10.549,33.92-10.549,55.507
		v15.367H19.582c-4.143,0-7.5,3.357-7.5,7.5c0,4.142,3.357,7.5,7.5,7.5h421.496c4.143,0,7.5-3.358,7.5-7.5
		C448.578,449.017,445.22,445.659,441.078,445.659z M307.801,326.086H270.23v-22.734c0-0.396-0.04-0.783-0.1-1.163
		c24.057-9.941,39.262-26.521,48.52-40.897c1.023-1.589,1.984-3.172,2.897-4.744v71.258
		C313.707,326.117,308.295,326.1,307.801,326.086z M321.547,214.717c-0.396,2.247-2.355,12.177-7.837,24.303h-50.98
		c-0.947,0-1.85,0.183-2.685,0.503c-2.016-2.183-4.893-3.559-8.099-3.559h-8.279c-6.093,0-11.031,4.938-11.031,11.031
		c0,6.092,4.939,11.031,11.031,11.031h8.279c3.555,0,6.708-1.688,8.726-4.3c0.654,0.187,1.343,0.293,2.058,0.293h42.75
		c-16.808,25.55-41.854,39.607-74.453,41.781h-1.395c-32.767-2.185-57.904-16.371-74.713-42.169
		c-11.735-18.011-15.267-35.843-15.808-38.913v-82.62h67.218c4.143,0,7.5-3.357,7.5-7.5v-5.375l10.075,10.554
		c1.415,1.482,3.375,2.321,5.425,2.321h92.218V214.717z M205.429,333.586v-26.469c7.174,1.836,14.973,3.117,23.472,3.668
		c0.162,0.011,0.323,0.016,0.485,0.016h1.887c0.162,0,0.323-0.005,0.485-0.016c8.499-0.551,16.298-1.832,23.472-3.668v26.469
		c0,4.143,3.357,7.5,7.5,7.5h19.852c-2.912,26.259-25.229,46.751-52.252,46.751s-49.34-20.492-52.252-46.751h19.852
		C202.072,341.086,205.429,337.728,205.429,333.586z M351.339,208.27c0,11.117-5.93,20.874-14.792,26.276v-19.214v-1.606
		c5.268-1.3,9.851-4.018,13.49-8.047c0.364-0.403,0.712-0.816,1.05-1.234C351.246,205.708,351.339,206.983,351.339,208.27z
		 M342.679,166.066c0.716,0.563,1.477,1.408,1.68,3.401c0.892,8.739-0.072,20.2-5.453,26.157c-0.721,0.798-1.509,1.456-2.358,2.009
		v-33.597C338.873,164.306,341.199,164.903,342.679,166.066z M95.814,134.527c0-103.552,73.482-119.39,117.732-119.524
		c52.121,0.131,105.089,12.82,107.877,102.096h-88.885l-20.784-21.771c-2.116-2.218-5.369-2.923-8.214-1.783
		c-2.846,1.14-4.711,3.896-4.711,6.962v16.593h-67.218c-4.143,0-7.5,3.357-7.5,7.5v90.733c0,0.36,0.026,0.72,0.078,1.076
		c0.131,0.907,3.387,22.474,17.819,44.884c9.258,14.376,24.462,30.956,48.52,40.897c-0.06,0.38-0.1,0.767-0.1,1.163v22.734h-37.518
		c-1.286,0.005-30.869,0.051-54.46,23.474c-0.907,0.9-1.774,1.84-2.638,2.782V134.527z M85.557,430.292
		c0-88.178,64.527-89.205,67.301-89.206h10.157c2.969,34.543,32.015,61.751,67.314,61.751c35.299,0,64.346-27.208,67.314-61.751
		h10.211c0.002,0,0.005,0,0.009,0c0.332,0,8.101,0.059,18.227,3.475c0.286,0.123,0.582,0.224,0.885,0.311
		c7.692,2.709,16.624,7.351,24.664,15.333c15.569,15.457,23.463,39.038,23.463,70.088v15.367H85.557V430.292z"/>
            <circle cx="177.092" cy="166.997" r="8.952"/>
            <circle cx="283.566" cy="166.997" r="8.951"/>
            <path d="M221.974,193.323c-4.143,0-7.5,3.357-7.5,7.5c0,8.026,6.529,14.556,14.556,14.556h2.6c8.026,0,14.556-6.529,14.556-14.556
		c0-4.143-3.357-7.5-7.5-7.5c-3.993,0-7.257,3.12-7.487,7.056h-1.736C229.231,196.443,225.967,193.323,221.974,193.323z"/>
            <path d="M208.251,242.498c-8.828-3.033-13.376-6.899-13.568-7.064c-3.062-2.75-7.774-2.519-10.552,0.527
		c-2.791,3.061-2.572,7.805,0.488,10.596c0.663,0.605,6.824,6.027,18.757,10.127c0.808,0.277,1.63,0.409,2.438,0.409
		c3.114,0,6.024-1.955,7.093-5.064C214.253,248.11,212.169,243.844,208.251,242.498z"/>
            <path d="M334.137,409.485h-23.055c-4.142,0-7.5,3.358-7.5,7.5c0,4.143,3.358,7.5,7.5,7.5h23.055c4.143,0,7.5-3.357,7.5-7.5
		C341.637,412.843,338.28,409.485,334.137,409.485z"/>
        </g>
    </symbol>

    <symbol id="stage2" viewBox="0 0 380.16 380.16">
        <g>
            <path d="m223.109,63.757c-21.282-21.282-49.578-33.003-79.676-33.003-30.098,0-58.394,11.721-79.676,33.003s-33.003,49.579-33.003,79.677c0,30.098 11.721,58.394 33.003,79.676 21.282,21.282 49.579,33.003 79.676,33.003 30.098,0 58.394-11.721 79.676-33.003 21.282-21.282 33.003-49.579 33.003-79.676 5.68434e-14-30.099-11.721-58.395-33.003-79.677zm-10.606,148.746c-18.449,18.449-42.979,28.61-69.07,28.61-26.091,0-50.621-10.16-69.07-28.61-38.085-38.085-38.085-100.055 0-138.14 18.449-18.449 42.979-28.609 69.07-28.609 26.091,0 50.621,10.16 69.07,28.609 38.085,38.085 38.085,100.055 0,138.14z"/>
            <path d="m189.043,68.306c-3.539-2.152-8.153-1.028-10.305,2.511-2.152,3.539-1.028,8.153 2.511,10.305 4.955,3.013 9.567,6.641 13.71,10.784 1.464,1.465 3.384,2.197 5.303,2.197s3.839-0.732 5.303-2.197c2.929-2.929 2.929-7.677 0-10.606-4.987-4.988-10.546-9.36-16.522-12.994z"/>
            <path d="m86.603,94.103c1.919,0 3.839-0.732 5.303-2.197 16.39-16.39 39.87-24.042 62.804-20.47 4.095,0.638 7.927-2.164 8.565-6.257 0.637-4.093-2.164-7.927-6.256-8.565-27.651-4.305-55.956,4.923-75.719,24.686-2.929,2.929-2.929,7.677 0,10.606 1.464,1.465 3.384,2.197 5.303,2.197z"/>
            <path d="m104.932,205.322c-4.693-2.926-9.075-6.412-13.026-10.363-2.929-2.929-7.678-2.929-10.606,0-2.929,2.929-2.929,7.677 0,10.606 4.756,4.756 10.037,8.957 15.697,12.485 1.234,0.77 2.606,1.136 3.96,1.136 2.503,0 4.95-1.253 6.372-3.533 2.191-3.513 1.118-8.139-2.397-10.331z"/>
            <path d="m194.96,194.959c-15.89,15.89-37.818,23.484-60.165,20.833-4.113-0.49-7.844,2.451-8.331,6.564-0.488,4.113 2.451,7.843 6.564,8.331 3.53,0.419 7.047,0.625 10.544,0.625 23.193,0 45.343-9.097 61.994-25.747 2.929-2.929 2.929-7.678 0-10.607-2.928-2.927-7.677-2.927-10.606,0.001z"/>
            <path d="m371.055,327.024l-90.768-90.768c-2.929-2.929-7.678-2.929-10.606,0l-3.631,3.631-8.907-8.907c43.357-56.232 39.279-137.498-12.24-189.017-55.95-55.951-146.989-55.951-202.939,0-55.951,55.95-55.951,146.989 0,202.939 27.975,27.975 64.723,41.963 101.47,41.963 30.925,0 61.85-9.909 87.547-29.723l8.907,8.907-3.631,3.631c-1.407,1.406-2.197,3.314-2.197,5.303s0.79,3.897 2.197,5.303l90.768,90.768c6.07,6.07 14.042,9.104 22.016,9.104 7.972,0 15.946-3.035 22.016-9.104 12.138-12.138 12.138-31.89-0.002-44.03zm-318.486-92.728c-24.271-24.271-37.637-56.54-37.637-90.863s13.367-66.593 37.637-90.863c24.271-24.27 56.54-37.637 90.863-37.637s66.594,13.367 90.864,37.637c24.271,24.271 37.637,56.54 37.637,90.863s-13.366,66.593-37.637,90.863c-24.271,24.27-56.54,37.637-90.863,37.637s-66.593-13.366-90.864-37.637zm189.827,13.05c0.843-0.803 1.679-1.616 2.506-2.444s1.641-1.664 2.444-2.506l8.097,8.097-4.95,4.95-8.097-8.097zm118.053,113.103c-6.292,6.291-16.527,6.29-22.818,0l-85.465-85.465 22.818-22.818 85.465,85.465c6.291,6.291 6.291,16.527-5.68434e-14,22.818z"/>
        </g>
    </symbol>

    <symbol id="stage3" viewBox="0 -27 512 512">
        <path d="m478 79.472656h-20.019531l.019531-35.789062c.011719-24.027344-19.523438-43.5859378-43.554688-43.5976565l-151.9375-.0859375c-.007812 0-.011718 0-.019531 0-8.648437 0-16.78125 3.367188-22.898437 9.484375l-226.828125 226.828125c-8.230469 8.230469-12.761719 19.171875-12.761719 30.8125s4.53125 22.582031 12.761719 30.8125l147.203125 147.203125c8.496094 8.496094 19.65625 12.742187 30.8125 12.742187 11.160156 0 22.320312-4.246093 30.816406-12.742187l142.8125-142.8125c3.90625-3.90625 3.90625-10.238281 0-14.140625-3.90625-3.90625-10.238281-3.90625-14.144531 0l-142.8125 142.8125c-9.191407 9.191406-24.148438 9.191406-33.339844 0l-147.203125-147.203125c-4.453125-4.453125-6.90625-10.375-6.90625-16.671875s2.453125-12.21875 6.90625-16.671875l226.824219-226.824219c2.339843-2.339844 5.449219-3.628906 8.757812-3.628906h.007813l151.9375.085938c13 .003906 23.574218 10.589843 23.566406 23.589843l-.046875 83.796875h-45.042969c-3.878906 0-7.390625-1.585937-9.929687-4.140625 4.183593-1.792969 8.105469-4.382812 11.515625-7.792969 14.371094-14.375 14.371094-37.757812 0-52.128906-14.375-14.375-37.757813-14.375-52.132813 0-14.371093 14.371094-14.371093 37.753906 0 52.128906 5.328125 5.328126 11.898438 8.675782 18.785157 10.054688 4.894531 12.777344 17.28125 21.878906 31.761718 21.878906h45.03125l-.027344 47.9375c0 3.308594-1.289062 6.414063-3.628906 8.75l-27.453125 27.457032c-3.90625 3.90625-3.90625 10.238281 0 14.144531 3.902344 3.902343 10.234375 3.902343 14.140625 0l27.457032-27.457031c6.109374-6.113282 9.480468-14.238282 9.484374-22.882813l.027344-47.949219h20.058594c18.746094 0 34-15.25 34-34 0-18.746094-15.253906-34-34-34zm-121.492188-1.921875c3.289063-3.289062 7.605469-4.929687 11.925782-4.929687 4.316406 0 8.632812 1.644531 11.921875 4.929687 1.039062 1.042969 1.898437 2.195313 2.609375 3.410157-10.976563 3.363281-19.601563 12.148437-22.753906 23.21875-1.324219-.738282-2.578126-1.65625-3.703126-2.78125-6.574218-6.578126-6.574218-17.273438 0-23.847657zm121.492188 49.921875h-20.046875l.015625-28h20.03125c7.71875 0 14 6.28125 14 14s-6.28125 14-14 14zm0 0"/>
        <path d="m161.414062 252.304688c1.230469 4.425781 5.25 7.320312 9.625 7.320312.890626 0 1.792969-.117188 2.6875-.367188l102.65625-28.574218c5.320313-1.480469 8.433594-6.996094 6.953126-12.316406-1.480469-5.316407-6.992188-8.429688-12.316407-6.949219l-102.65625 28.570312c-5.316406 1.484375-8.429687 6.996094-6.949219 12.316407zm0 0"/>
        <path d="m206.601562 265.5c-5.570312 5.570312-8.636718 12.972656-8.636718 20.851562 0 7.875 3.066406 15.277344 8.636718 20.847657 5.75 5.746093 13.296876 8.621093 20.847657 8.621093s15.101562-2.875 20.851562-8.621093c11.496094-11.496094 11.496094-30.203125 0-41.699219-11.496093-11.496094-30.203125-11.496094-41.699219 0zm27.554688 27.554688c-3.699219 3.699218-9.714844 3.699218-13.414062 0-1.792969-1.789063-2.777344-4.171876-2.777344-6.707032 0-2.53125.988281-4.914062 2.777344-6.707031 1.851562-1.847656 4.28125-2.773437 6.707031-2.773437 2.429687 0 4.859375.925781 6.707031 2.773437 3.699219 3.699219 3.699219 9.71875 0 13.414063zm0 0"/>
        <path d="m253.253906 205.960938c11.496094-11.5 11.496094-30.203126 0-41.699219-5.570312-5.570313-12.976562-8.636719-20.851562-8.636719s-15.28125 3.066406-20.847656 8.636719c-11.496094 11.496093-11.496094 30.199219 0 41.699219 5.75 5.746093 13.296874 8.621093 20.847656 8.621093 7.550781 0 15.101562-2.875 20.851562-8.621093zm-27.558594-27.558594c1.792969-1.792969 4.175782-2.777344 6.707032-2.777344 2.535156 0 4.917968.984375 6.707031 2.777344 3.699219 3.699218 3.699219 9.714844 0 13.414062-3.695313 3.699219-9.714844 3.699219-13.414063 0-3.695312-3.699218-3.695312-9.714844 0-13.414062zm0 0"/>
        <path d="m99.460938 231.640625c-3.90625-3.90625-10.238282-3.90625-14.144532 0l-28.414062 28.414063c-1.875 1.875-2.929688 4.417968-2.929688 7.070312s1.054688 5.195312 2.929688 7.070312l126.808594 126.808594c1.949218 1.949219 4.511718 2.925782 7.070312 2.925782s5.117188-.976563 7.070312-2.925782l189.59375-189.597656c3.90625-3.90625 3.90625-10.238281 0-14.144531l-126.804687-126.804688c-1.875-1.875-4.417969-2.929687-7.070313-2.929687-2.652343 0-5.195312 1.054687-7.070312 2.929687l-104.613281 104.613281c-3.90625 3.90625-3.90625 10.238282 0 14.144532 3.902343 3.902344 10.234375 3.902344 14.140625 0l97.542968-97.542969 112.664063 112.664063-175.453125 175.453124-112.664062-112.664062 21.34375-21.34375c3.902343-3.90625 3.90625-10.234375 0-14.140625zm0 0"/>
        <path d="m385.621094 256.972656c-2.632813 0-5.210938 1.070313-7.070313 2.929688s-2.929687 4.441406-2.929687 7.070312 1.070312 5.210938 2.929687 7.070313 4.4375 2.929687 7.070313 2.929687c2.628906 0 5.207031-1.070312 7.070312-2.929687 1.859375-1.859375 2.929688-4.441407 2.929688-7.070313s-1.070313-5.210937-2.929688-7.070312c-1.863281-1.859375-4.441406-2.929688-7.070312-2.929688zm0 0"/>
        <path d="m127.738281 217.492188c1.871094-1.859376 2.933594-4.429688 2.933594-7.070313 0-2.628906-1.0625-5.199219-2.933594-7.070313-1.859375-1.859374-4.429687-2.929687-7.066406-2.929687-2.632813 0-5.210937 1.070313-7.070313 2.929687-1.863281 1.859376-2.929687 4.441407-2.929687 7.070313 0 2.640625 1.066406 5.210937 2.929687 7.070313 1.867188 1.871093 4.4375 2.929687 7.070313 2.929687 2.636719 0 5.207031-1.058594 7.066406-2.929687zm0 0"/>
    </symbol>

    <symbol id="stage4" viewBox="0 0 511.999 511.999">
        <g>
            <path d="m404.992 288.798c-18.278 0-33.148 14.871-33.148 33.149s14.87 33.149 33.148 33.149 33.149-14.871 33.149-33.149c.001-18.278-14.87-33.149-33.149-33.149zm0 51.298c-10.007 0-18.148-8.142-18.148-18.149 0-10.008 8.142-18.149 18.148-18.149 10.008 0 18.149 8.142 18.149 18.149.001 10.008-8.141 18.149-18.149 18.149z"/>
            <path d="m85.295 288.798c-18.278 0-33.149 14.871-33.149 33.149s14.871 33.149 33.149 33.149 33.149-14.871 33.149-33.149-14.871-33.149-33.149-33.149zm0 51.298c-10.008 0-18.149-8.142-18.149-18.149 0-10.008 8.142-18.149 18.149-18.149s18.149 8.142 18.149 18.149c0 10.008-8.141 18.149-18.149 18.149z"/>
            <path d="m0 318.2v8.111c0 9.062 7.372 16.434 16.435 16.434h13.874c8.42 22.184 29.886 38 54.986 38s46.567-15.815 54.986-38h73.153c4.143 0 7.5-3.358 7.5-7.5s-3.357-7.5-7.5-7.5h-69.628c.367-3.717.373-7.405.059-10.98h202.557c-.31 3.521-.312 7.26.06 10.98h-98.047c-4.143 0-7.5 3.358-7.5 7.5s3.357 7.5 7.5 7.5h101.571c8.42 22.184 29.886 38 54.986 38 25.101 0 46.567-15.815 54.987-38h35.586c9.062 0 16.434-7.372 16.434-16.434v-8.111c0-6.507-3.811-12.126-9.31-14.787v-23.216c0-23.738-16.569-44.533-40.319-49.375l-74.41-15.18c-.585-.119-1.164-.276-1.74-.448-2.208-8.874-10.22-15.477-19.767-15.477h-.957l-22.97-19.781c-3.14-2.703-7.875-2.35-10.577.789-2.703 3.139-2.351 7.874.788 10.577l12.674 10.914c-3.564 1.955-6.496 5.007-8.313 8.487l-34.777-29.949c-7.93-6.83-17.476-11.674-27.606-14.009-57.236-13.197-121.434-11.828-179.524 7.832-13.924 4.713-25.944 14.083-33.848 26.387-3.101 4.828-2.162 11.32 2.18 15.102l30.785 26.816c2.128 1.856 4.856 2.878 7.683 2.878h238.759c3.804 3.818 8.951 6.007 14.437 6.007h11.269c11.213 0 20.391-9.118 20.391-20.391v-.651l65.699 13.403v21.791c0 11.453 9.318 20.771 20.771 20.771h14.375v15.078h-27.454c-8.444-23.2-30.558-38.617-55.243-38.617-24.583 0-46.765 15.327-55.242 38.617h-209.216c-8.489-23.326-30.7-38.617-55.242-38.617-24.547 0-46.755 15.296-55.242 38.617h-7.89l-1.813-6.646c-1.056-3.872-1.591-7.87-1.591-11.883v-5.087h7.539c11.243 0 20.39-9.147 20.39-20.391v-6.609c0-10.665-8.233-19.428-18.675-20.304l23.385-36.34c9.351-14.531 23.554-25.598 39.991-31.161 78.038-26.412 150.023-16.446 185.987-8.155 10.57 2.438 20.332 7.018 29.013 13.613 3.299 2.507 8.004 1.863 10.509-1.434 2.506-3.298 1.864-8.003-1.435-10.509-10.382-7.889-22.063-13.368-34.718-16.286-37.512-8.649-112.617-19.037-194.165 8.563-19.642 6.647-36.615 19.876-47.796 37.251l-25.454 39.556c-6.22 9.667-9.571 21.008-9.571 32.562v12.143 12.587c0 5.346.713 10.672 2.119 15.83l1.485 5.443c-4.432 2.944-7.363 7.979-7.363 13.689zm292.531-126.081 42.263 36.395v2.245h-96.359v-55.156c12.953 1.595 24.108 3.728 32.91 5.757 7.768 1.79 15.093 5.511 21.186 10.759zm-216.937 14.568c11.219-15.387 26.3-19.379 47.487-24.637l8.261 48.709h-28.114zm70.962 24.072-8.812-51.957c44.867-8.754 79.098-4.779 85.69-4.703v56.66zm219.897 6.007h-11.269c-3.167 0-5.391-2.685-5.391-5.391 0-4.162 0-7.114 0-11.268 0-2.972 2.418-5.391 5.391-5.391h11.269c2.973 0 5.391 2.418 5.391 5.391v11.268c0 2.972-2.418 5.391-5.391 5.391zm38.539 128.979c-24.34 0-43.798-19.854-43.798-43.798 0-23.841 19.39-43.798 43.798-43.798 24.447 0 43.799 19.989 43.799 43.798 0 23.958-19.487 43.798-43.799 43.798zm62.551-99.828v-17.643c9.498 4.558 16.539 13.192 19.093 23.414h-13.321c-3.183 0-5.772-2.589-5.772-5.771zm27.646 50.849h.376c.79 0 1.434.644 1.434 1.435v8.111c0 .791-.644 1.434-1.434 1.434h-32.062c.381-3.813.363-7.53.06-10.98zm-409.894 48.979c-24.34 0-43.798-19.854-43.798-43.798 0-24.119 19.649-43.798 43.798-43.798 24.088 0 43.798 19.617 43.798 43.798 0 24.017-19.534 43.798-43.798 43.798zm-58.57-48.979c-.316 3.596-.302 7.359.06 10.98h-10.35c-.791 0-1.435-.644-1.435-1.434v-8.112c0-.791.644-1.435 1.435-1.435h10.29zm4.963-65.617v6.609c0 2.972-2.418 5.391-5.39 5.391h-7.538c.135-2.749-.612-9.1 1.834-17.39h5.705c2.972 0 5.389 2.418 5.389 5.39z"/>
            <path d="m262.624 274.156c4.143 0 7.5-3.358 7.5-7.5s-3.357-7.5-7.5-7.5h-9.399c-4.143 0-7.5 3.358-7.5 7.5s3.357 7.5 7.5 7.5z"/>
            <path d="m168.631 274.156c4.143 0 7.5-3.358 7.5-7.5s-3.357-7.5-7.5-7.5h-9.399c-4.143 0-7.5 3.358-7.5 7.5s3.357 7.5 7.5 7.5z"/>
        </g>
    </symbol>

    <symbol id="phone" viewBox="0 0 480.56 480.56">
        <g>
            <g>
                <path d="M365.354,317.9c-15.7-15.5-35.3-15.5-50.9,0c-11.9,11.8-23.8,23.6-35.5,35.6c-3.2,3.3-5.9,4-9.8,1.8
			c-7.7-4.2-15.9-7.6-23.3-12.2c-34.5-21.7-63.4-49.6-89-81c-12.7-15.6-24-32.3-31.9-51.1c-1.6-3.8-1.3-6.3,1.8-9.4
			c11.9-11.5,23.5-23.3,35.2-35.1c16.3-16.4,16.3-35.6-0.1-52.1c-9.3-9.4-18.6-18.6-27.9-28c-9.6-9.6-19.1-19.3-28.8-28.8
			c-15.7-15.3-35.3-15.3-50.9,0.1c-12,11.8-23.5,23.9-35.7,35.5c-11.3,10.7-17,23.8-18.2,39.1c-1.9,24.9,4.2,48.4,12.8,71.3
			c17.6,47.4,44.4,89.5,76.9,128.1c43.9,52.2,96.3,93.5,157.6,123.3c27.6,13.4,56.2,23.7,87.3,25.4c21.4,1.2,40-4.2,54.9-20.9
			c10.2-11.4,21.7-21.8,32.5-32.7c16-16.2,16.1-35.8,0.2-51.8C403.554,355.9,384.454,336.9,365.354,317.9z"/>
                <path d="M346.254,238.2l36.9-6.3c-5.8-33.9-21.8-64.6-46.1-89c-25.7-25.7-58.2-41.9-94-46.9l-5.2,37.1
			c27.7,3.9,52.9,16.4,72.8,36.3C329.454,188.2,341.754,212,346.254,238.2z"/>
                <path d="M403.954,77.8c-42.6-42.6-96.5-69.5-156-77.8l-5.2,37.1c51.4,7.2,98,30.5,134.8,67.2c34.9,34.9,57.8,79,66.1,127.5
			l36.9-6.3C470.854,169.3,444.354,118.3,403.954,77.8z"/>
            </g>
        </g>
    </symbol>

    <symbol id="clock" viewBox="0 0 31.772 31.772">
        <g>
            <path d="M15.887,0C7.113,0,0,7.115,0,15.889c0,8.77,7.113,15.883,15.887,15.883c8.773,0,15.884-7.113,15.884-15.883
		C31.771,7.115,24.66,0,15.887,0z M15.887,26.947c-6.1,0-11.064-4.961-11.064-11.059c0-6.104,4.964-11.068,11.064-11.068
		c6.101,0,11.061,4.965,11.061,11.068C26.948,21.986,21.987,26.947,15.887,26.947z"/>
            <path d="M17.253,15.012l0.001-6.133c0-0.754-0.611-1.363-1.367-1.363c-0.758,0-1.37,0.609-1.37,1.363v6.133v2.734v0.002h2.736
		v-0.002l6.134,0.002c0.752,0,1.366-0.611,1.366-1.367c0-0.758-0.614-1.369-1.366-1.369C23.388,15.012,17.253,15.012,17.253,15.012z
		"/>
        </g>
    </symbol>


    <symbol id="instagram" viewBox="0 0 511 511.9">
        <path d="m510.949219 150.5c-1.199219-27.199219-5.597657-45.898438-11.898438-62.101562-6.5-17.199219-16.5-32.597657-29.601562-45.398438-12.800781-13-28.300781-23.101562-45.300781-29.5-16.296876-6.300781-34.898438-10.699219-62.097657-11.898438-27.402343-1.300781-36.101562-1.601562-105.601562-1.601562s-78.199219.300781-105.5 1.5c-27.199219 1.199219-45.898438 5.601562-62.097657 11.898438-17.203124 6.5-32.601562 16.5-45.402343 29.601562-13 12.800781-23.097657 28.300781-29.5 45.300781-6.300781 16.300781-10.699219 34.898438-11.898438 62.097657-1.300781 27.402343-1.601562 36.101562-1.601562 105.601562s.300781 78.199219 1.5 105.5c1.199219 27.199219 5.601562 45.898438 11.902343 62.101562 6.5 17.199219 16.597657 32.597657 29.597657 45.398438 12.800781 13 28.300781 23.101562 45.300781 29.5 16.300781 6.300781 34.898438 10.699219 62.101562 11.898438 27.296876 1.203124 36 1.5 105.5 1.5s78.199219-.296876 105.5-1.5c27.199219-1.199219 45.898438-5.597657 62.097657-11.898438 34.402343-13.300781 61.601562-40.5 74.902343-74.898438 6.296876-16.300781 10.699219-34.902343 11.898438-62.101562 1.199219-27.300781 1.5-36 1.5-105.5s-.101562-78.199219-1.300781-105.5zm-46.097657 209c-1.101562 25-5.300781 38.5-8.800781 47.5-8.601562 22.300781-26.300781 40-48.601562 48.601562-9 3.5-22.597657 7.699219-47.5 8.796876-27 1.203124-35.097657 1.5-103.398438 1.5s-76.5-.296876-103.402343-1.5c-25-1.097657-38.5-5.296876-47.5-8.796876-11.097657-4.101562-21.199219-10.601562-29.398438-19.101562-8.5-8.300781-15-18.300781-19.101562-29.398438-3.5-9-7.699219-22.601562-8.796876-47.5-1.203124-27-1.5-35.101562-1.5-103.402343s.296876-76.5 1.5-103.398438c1.097657-25 5.296876-38.5 8.796876-47.5 4.101562-11.101562 10.601562-21.199219 19.203124-29.402343 8.296876-8.5 18.296876-15 29.398438-19.097657 9-3.5 22.601562-7.699219 47.5-8.800781 27-1.199219 35.101562-1.5 103.398438-1.5 68.402343 0 76.5.300781 103.402343 1.5 25 1.101562 38.5 5.300781 47.5 8.800781 11.097657 4.097657 21.199219 10.597657 29.398438 19.097657 8.5 8.300781 15 18.300781 19.101562 29.402343 3.5 9 7.699219 22.597657 8.800781 47.5 1.199219 27 1.5 35.097657 1.5 103.398438s-.300781 76.300781-1.5 103.300781zm0 0"/>
        <path d="m256.449219 124.5c-72.597657 0-131.5 58.898438-131.5 131.5s58.902343 131.5 131.5 131.5c72.601562 0 131.5-58.898438 131.5-131.5s-58.898438-131.5-131.5-131.5zm0 216.800781c-47.097657 0-85.300781-38.199219-85.300781-85.300781s38.203124-85.300781 85.300781-85.300781c47.101562 0 85.300781 38.199219 85.300781 85.300781s-38.199219 85.300781-85.300781 85.300781zm0 0"/>
        <path d="m423.851562 119.300781c0 16.953125-13.746093 30.699219-30.703124 30.699219-16.953126 0-30.699219-13.746094-30.699219-30.699219 0-16.957031 13.746093-30.699219 30.699219-30.699219 16.957031 0 30.703124 13.742188 30.703124 30.699219zm0 0"/>
    </symbol>

    <symbol id="facebook" viewBox="0 0 96.124 96.123">
        <g>
            <path d="M72.089,0.02L59.624,0C45.62,0,36.57,9.285,36.57,23.656v10.907H24.037c-1.083,0-1.96,0.878-1.96,1.961v15.803
		c0,1.083,0.878,1.96,1.96,1.96h12.533v39.876c0,1.083,0.877,1.96,1.96,1.96h16.352c1.083,0,1.96-0.878,1.96-1.96V54.287h14.654
		c1.083,0,1.96-0.877,1.96-1.96l0.006-15.803c0-0.52-0.207-1.018-0.574-1.386c-0.367-0.368-0.867-0.575-1.387-0.575H56.842v-9.246
		c0-4.444,1.059-6.7,6.848-6.7l8.397-0.003c1.082,0,1.959-0.878,1.959-1.96V1.98C74.046,0.899,73.17,0.022,72.089,0.02z"/>
        </g>
    </symbol>

    <symbol id="vk" viewBox="0 0 511.962 511.962">
        <g>
            <g>
                <path d="M507.399,370.471c-1.376-2.304-9.888-20.8-50.848-58.816c-42.88-39.808-37.12-33.344,14.528-102.176
			c31.456-41.92,44.032-67.52,40.096-78.464c-3.744-10.432-26.88-7.68-26.88-7.68l-76.928,0.448c0,0-5.696-0.768-9.952,1.76
			c-4.128,2.496-6.784,8.256-6.784,8.256s-12.192,32.448-28.448,60.032c-34.272,58.208-48,61.28-53.6,57.664
			c-13.024-8.416-9.76-33.856-9.76-51.904c0-56.416,8.544-79.936-16.672-86.016c-8.384-2.016-14.528-3.36-35.936-3.584
			c-27.456-0.288-50.72,0.096-63.872,6.528c-8.768,4.288-15.52,13.856-11.392,14.4c5.088,0.672,16.608,3.104,22.72,11.424
			c7.904,10.72,7.616,34.848,7.616,34.848s4.544,66.4-10.592,74.656c-10.4,5.664-24.64-5.888-55.2-58.72
			c-15.648-27.04-27.488-56.96-27.488-56.96s-2.272-5.568-6.336-8.544c-4.928-3.616-11.84-4.768-11.84-4.768l-73.152,0.448
			c0,0-10.976,0.32-15.008,5.088c-3.584,4.256-0.288,13.024-0.288,13.024s57.28,133.984,122.112,201.536
			c59.488,61.92,127.008,57.856,127.008,57.856h30.592c0,0,9.248-1.024,13.952-6.112c4.352-4.672,4.192-13.44,4.192-13.44
			s-0.608-41.056,18.464-47.104c18.784-5.952,42.912,39.68,68.48,57.248c19.328,13.28,34.016,10.368,34.016,10.368l68.384-0.96
			C488.583,400.807,524.359,398.599,507.399,370.471z"/>
            </g>
        </g>
    </symbol>

    <symbol id="ok" viewBox="0 0 24 24">
        <path d="m4.721 12.881c-.613 1.205.083 1.781 1.671 2.765 1.35.834 3.215 1.139 4.413 1.261-.491.472 1.759-1.692-4.721 4.541-1.374 1.317.838 3.43 2.211 2.141l3.717-3.585c1.423 1.369 2.787 2.681 3.717 3.59 1.374 1.294 3.585-.801 2.226-2.141-.102-.097-5.037-4.831-4.736-4.541 1.213-.122 3.05-.445 4.384-1.261l-.001-.001c1.588-.989 2.284-1.564 1.68-2.769-.365-.684-1.349-1.256-2.659-.267 0 0-1.769 1.355-4.622 1.355-2.854 0-4.622-1.355-4.622-1.355-1.309-.994-2.297-.417-2.658.267z"/>
        <path d="m11.999 12.142c3.478 0 6.318-2.718 6.318-6.064 0-3.36-2.84-6.078-6.318-6.078-3.479 0-6.319 2.718-6.319 6.078 0 3.346 2.84 6.064 6.319 6.064zm0-9.063c1.709 0 3.103 1.341 3.103 2.999 0 1.644-1.394 2.985-3.103 2.985s-3.103-1.341-3.103-2.985c-.001-1.659 1.393-2.999 3.103-2.999z"/>
    </symbol>
</svg>